<svg xmlns="http://www.w3.org/2000/svg" xmlns:xlink="http://www.w3.org/1999/xlink" width="548.505" height="731.572" viewBox="0 0 548.505 731.572">
  <defs>
    <pattern id="pattern" width="1" height="1" viewBox="63.572 187.155 475.547 634.263">
      <image preserveAspectRatio="xMidYMid slice" width="548.505" height="822.441" xlink:href="../../../../../../../Pictures/pexels-photo-10045485.jpeg"/>
    </pattern>
  </defs>
  <g id="Grupo_25" data-name="Grupo 25" transform="translate(-47.105 -425.429)">
    <path id="Subtração_3" data-name="Subtração 3" d="M128.657,731.572H109.08v-.017a54.545,54.545,0,0,1,.914-7.2,24.749,24.749,0,0,1,1.836-5.39l2.03-93.116-.046-.01c-1.462-.322-9.269-2.056-19.443-4.548-10.264-2.515-25.109-6.34-37.548-10.284A298.487,298.487,0,0,1,28.151,600.3c-6.721-2.931-10.575-4.966-10.612-4.985l.659,55.595,2.611,4.473h0l0,0a15.738,15.738,0,0,1-2.038,2.511,9.274,9.274,0,0,1-5.221,2.868,6.557,6.557,0,0,1-.722.039,14.357,14.357,0,0,1-6.033-1.769,25,25,0,0,1-2.948-1.769l1.36-6.357-1.36-68.283a27.379,27.379,0,0,1-2.835-6.877A28.676,28.676,0,0,1,0,568.384,26.129,26.129,0,0,1,1.516,559.5c1.876-5.263,5.492-10.117,10.748-14.426a61.618,61.618,0,0,1,10.744-6.935,104.33,104.33,0,0,1,15.281-6.285c12.606-4.141,30.26-7.865,52.472-11.07,17.77-2.564,38.481-4.8,61.556-6.655,39.334-3.157,72.253-4.1,72.581-4.111a89.805,89.805,0,0,0,11.506-8.7,37.306,37.306,0,0,0,6.855-8.7c.006,0,.6-.417.555-2.121-.045-1.586-.667-4.652-3.37-10.252a117.609,117.609,0,0,0-7.882-13.479,168.649,168.649,0,0,1-10.234-17.513,197.833,197.833,0,0,1-8.312-19.161c-1.853-4.973-2.817-8.185-2.827-8.217a51.149,51.149,0,0,1-3.309-4.487,45.332,45.332,0,0,1-5.26-10.458,44.015,44.015,0,0,1-1.893-11.438,48.372,48.372,0,0,1,.057-5.467l-1.591-2.021a274.308,274.308,0,0,1-3.3-31.727,281.989,281.989,0,0,1,.979-32.217,10.748,10.748,0,0,1-1.476-2.955,17.868,17.868,0,0,1-.6-8.559,42.934,42.934,0,0,1,3.129-10.152,48.693,48.693,0,0,1,2.257-4.548h-.023c-.575-.025-3.6-.175-6.663-.643a26.912,26.912,0,0,1-4.829-1.114c-1.529-.546-2.432-1.191-2.683-1.918-.621-1.794.283-4.548,1.651-8.718a117.753,117.753,0,0,0,3.489-12.352,255.16,255.16,0,0,0,3.819-25.8h0a8.866,8.866,0,0,1-2.14-1.8c-.663-.882-.452-1.3.246-2.683l.024-.047.158-.315a17.143,17.143,0,0,1,2.917-3.646v-3.8a10.361,10.361,0,0,0-3.345,2.3,27.111,27.111,0,0,0-1.768,2.223c-1.064,1.438-2.069,2.8-3.246,3.224a3.874,3.874,0,0,1-1.323.244,4.276,4.276,0,0,1-3.042-1.489,7.1,7.1,0,0,1-1.07-1.489h0a8.586,8.586,0,0,1-1.379.107,6.208,6.208,0,0,1-2.831-.6,3.393,3.393,0,0,1-1.811-2.8c-.267-2.455,2.021-3,4.917-3.7a17.921,17.921,0,0,0,6.995-2.805,35.923,35.923,0,0,0,7.909-8.669l-3.766-2.073H192.3a7.928,7.928,0,0,0-2.836.614,10.316,10.316,0,0,0-4.626,3.816c-1.086,1.566-2.255,2.36-3.476,2.36a3.849,3.849,0,0,1-2.644-1.324,3.469,3.469,0,0,1-.465-1.781c-.005-1.007.382-2.579,2.254-4.343a36.9,36.9,0,0,1,7.72-5.936,16.99,16.99,0,0,1,4.991-1.6l6.873,2.827,6.4-32.321a28.289,28.289,0,0,1-4.64-4.957,29.561,29.561,0,0,1-3.413-5.84,25.188,25.188,0,0,1-2.021-7.765,37.476,37.476,0,0,1,.465-9.172,73.27,73.27,0,0,1,2.057-8.934,91.7,91.7,0,0,1,3.316-9.457h9.228a1.654,1.654,0,0,1-.017-1.393c.352-.857,1.539-2.079,5.2-3.036,6.669-1.744,21.693-2.629,21.844-2.638v-7.774h0l-.024,0c-.749-.079-3.424-.377-6.389-.87-3.1-.516-7.14-1.356-8.744-2.426-2.041-1.362-2.379-2.9-2.846-5.028a25.643,25.643,0,0,0-1.109-3.923,26.125,26.125,0,0,0-2.962-5.028,49.758,49.758,0,0,1-3.346-5.393,21.945,21.945,0,0,1-2.261-6.823,12.97,12.97,0,0,1,1.765-9.523,15.054,15.054,0,0,0,1.978-5.354,15.916,15.916,0,0,0-.069-6.285,13.741,13.741,0,0,1-.317-3.666,20.564,20.564,0,0,1,1.095-6.288,27.787,27.787,0,0,1,.9-4.623,29.829,29.829,0,0,1,4.511-9.55,46.189,46.189,0,0,1,8.727-8.515c2.819-2.173,5.094-3.574,5.117-3.588a3.73,3.73,0,0,1,.012-3.017,6.348,6.348,0,0,1,2.227-2.6,18.384,18.384,0,0,1,5.559-2.507c5.416-1.59,14.41-2.645,21-3.25,7.051-.647,12.893-.929,13.138-.941v0a22.165,22.165,0,0,1,1.43-5.816,11.264,11.264,0,0,1,2.6-4,6.51,6.51,0,0,1,4.579-1.819,10.725,10.725,0,0,1,4.211.986,1.291,1.291,0,0,0,.513.114c1.062,0,1.83-1.536,2.8-3.482a23.3,23.3,0,0,1,2.8-4.637A7.621,7.621,0,0,1,300.224.1a8.835,8.835,0,0,1,1.294-.1,6.912,6.912,0,0,1,5.518,2.737,25.047,25.047,0,0,1,3.208,5.652c.505,1.1.982,2.135,1.5,3.018.763,1.312,2.835,2.46,4.839,3.571,2.139,1.186,4.16,2.306,4.721,3.606A30.356,30.356,0,0,1,323.9,30.134a39.593,39.593,0,0,1-.8,8.221,18.758,18.758,0,0,0-.418,3.277,2.446,2.446,0,0,1-.485,1.785,1.243,1.243,0,0,1-.927.354,3.585,3.585,0,0,1-1.558-.472l-.652,3.842-3.839,3.624-5.577,2.682a12.088,12.088,0,0,0-1.17,2.073,21.789,21.789,0,0,0-1.727,6.082c-.456,3.279-.055,3.611.452,4.032a2.235,2.235,0,0,1,.851,1.622c.147.834.291,1.466.418,2.024a7.55,7.55,0,0,1,.234,3.412,3.067,3.067,0,0,1-1.956,2.465l-1.521,6.234c-.048.05-4.82,5-5.939,8.046-.653,1.773.077,2.356.721,2.87.484.386.9.72.655,1.479-.32.981-1.179,1.316-2.009,1.64a3.056,3.056,0,0,0-1.685,1.114c-.166.283-.225.455-.19.559.029.086.118.122.23.168.309.126.775.316.539,1.81l-.027.171c-.409,2.59-.872,5.525-2.219,7.839-.586,1.006-1.073,1.135-1.431,1.135a2.357,2.357,0,0,1-.539-.081l-.016,0a2.18,2.18,0,0,0-.492-.078.918.918,0,0,0-.782.477,2.363,2.363,0,0,0-.24,1.943,2.373,2.373,0,0,1-.339,2.116,3.918,3.918,0,0,1-3.234,1.713,5.285,5.285,0,0,1-.677-.046c-.857-.111-1.165-.852-1.437-1.506-.214-.514-.4-.958-.808-.958-.434,0-.493.368-.567.835a2.066,2.066,0,0,1-.882,1.63,8.557,8.557,0,0,1-3.753.8h-.013l-.718,3.455a17.152,17.152,0,0,0,4.049,5.937,17.715,17.715,0,0,0,6.5,3.2l0,0c.315.2,7.717,4.906,7.717,5.179,0,.05.251.071.84.071.386,0,.887-.009,1.467-.019l.367-.006c.77-.013,1.609-.025,2.518-.025a39.028,39.028,0,0,1,8.179.64c2.406.547,3.576,1.135,4.316,2.169.774,1.083,1.1,2.673,1.637,5.308q.08.393.167.815a31.514,31.514,0,0,1-.153,9.953c-.453,3.079-1.065,5.477-1.071,5.5a17.018,17.018,0,0,0-1.48,3.08,12.428,12.428,0,0,0-.685,6.72,13.648,13.648,0,0,0,3.251,5.936,10.861,10.861,0,0,1,2.492,4.24,4.893,4.893,0,0,1-.133,3.1,12.828,12.828,0,0,1-1.783,2.776c-.661.874-1.41,1.865-2.226,3.169a64.174,64.174,0,0,1-6.5,8.433c.039.726.941,17.887,0,29.776a81.418,81.418,0,0,1-2.292,14.065,39.708,39.708,0,0,1-1.568,4.922,95.814,95.814,0,0,1,0,14.135,9.932,9.932,0,0,1-1.24,4.34c-.446.807-.831,1.5-.831,3.952a12.106,12.106,0,0,0,.854,4.76,19.537,19.537,0,0,1,1.217,6.029,42.4,42.4,0,0,1-.007,6.32,61.62,61.62,0,0,0,.007,8.568c.155,2.643.593,6.017.98,8.993.164,1.266.32,2.46.432,3.445.5,4.409.565,6.435.565,6.455a46.294,46.294,0,0,1,2.377,6.131,114.1,114.1,0,0,1,4.214,18.746c2.418,16.611,3.193,42.147,3.2,42.4-.074.058-1.851,1.424-6.5,1.884-1.4.139-3.205.209-5.36.209-3.666,0-7.129-.207-7.163-.209v.008c.016.459.137,4.544-.66,6.494-.438,1.071-3.615,2.782-6.2,4.028-2.758,1.329-5.453,2.427-5.566,2.473,0,.011-.44,1.27,0,6.5.441,5.248,1.775,14.7,1.789,14.794a39.28,39.28,0,0,1,4.39,7.974,55.037,55.037,0,0,1,3.038,9.477,59.412,59.412,0,0,1,1.422,12.7c.091,18.445,0,41.52,0,42.494v0a31.469,31.469,0,0,1,2.636,5.748,10.8,10.8,0,0,1,.471,3.447,21.214,21.214,0,0,0,.47,4.469,88.785,88.785,0,0,0,3.013,10.082h.01c1.546.085,38.356,2.128,81.676,6.621,25.884,2.685,49.024,5.707,68.778,8.984,24.691,4.1,44.13,8.6,57.776,13.4a111.018,111.018,0,0,1,15.991,6.938,61.381,61.381,0,0,1,10.953,7.414c5.267,4.567,8.646,9.62,10.044,15.02a23.808,23.808,0,0,1,.471,9.52,29.319,29.319,0,0,1-2.363,7.824,32.177,32.177,0,0,1-4.506,7.252v68.923l-11.887,6.3V602.734a.155.155,0,0,1-.027.013c-.809.361-5.19,2.292-12.023,4.9-6.908,2.639-17.824,6.538-30.6,10.13s-27.4,6.873-37.418,8.993c-10.6,2.242-18.528,3.715-18.861,3.776h-.007v83.617c-.022.036-2.232,3.62-5.244,4.8a8.7,8.7,0,0,1-3.172.534,14.715,14.715,0,0,1-3.819-.534V630.548l-.028,0c-1.654.222-16.815,2.231-39.442,4.217-13.96,1.226-27.982,2.2-41.676,2.9-17.118.875-33.769,1.32-49.491,1.32h-.025c-2.942,0-5.913-.016-8.83-.047-16.517-.179-34.688-.9-54.01-2.132-15.455-.989-31.679-2.31-48.221-3.927-28.062-2.743-47.727-5.444-47.923-5.471l-1.894,91.552c0,.029.507,2.985.979,6.125.467,3.109.91,6.448.915,6.479ZM244.6,388.343l-4.615,2.548a63.977,63.977,0,0,0-1.057,9.04,29.745,29.745,0,0,0,.806,10.063c1.1,3.785,2.052,4.789,3.253,6.06,1.494,1.581,3.353,3.549,6.33,11.838a152.484,152.484,0,0,1,5.2,18.554,181.18,181.18,0,0,0,6.64,23.185c2.626,7.233,7.917,14.218,10.459,17.575a16.724,16.724,0,0,1,1.419,2,6.8,6.8,0,0,1,.274,4.01,20.2,20.2,0,0,1-2.52,5.522c-2.75,4.639-8.991,9.79-9.054,9.841h13.42v-.006a92.541,92.541,0,0,1,0-11.212c.039-.867.136-1.76.24-2.7v-.006a32.474,32.474,0,0,0-.241-10.755c-2.075-10.734-4.788-18.288-7.93-27.035-2.5-6.95-5.326-14.827-8.3-25.676a42.8,42.8,0,0,0-4.41-8.735A33.408,33.408,0,0,1,250.8,415.1a28.313,28.313,0,0,0-1.061-2.744,15.2,15.2,0,0,1-1.178-3.556,60.662,60.662,0,0,1-.752-7.543,36.463,36.463,0,0,0-.53-5.337,32.867,32.867,0,0,0-1.932-6.419C244.88,388.495,244.6,388.345,244.6,388.343Z" transform="translate(47.104 425.428)" fill="url(#pattern)"/>
    <path id="Subtração_3-2" data-name="Subtração 3" d="M128.657,731.572H109.08v-.017a54.545,54.545,0,0,1,.914-7.2,24.749,24.749,0,0,1,1.836-5.39l2.03-93.116-.046-.01c-1.462-.322-9.269-2.056-19.443-4.548-10.264-2.515-25.109-6.34-37.548-10.284A298.487,298.487,0,0,1,28.151,600.3c-6.721-2.931-10.575-4.966-10.612-4.985l.659,55.595,2.611,4.473h0l0,0a15.738,15.738,0,0,1-2.038,2.511,9.274,9.274,0,0,1-5.221,2.868,6.557,6.557,0,0,1-.722.039,14.357,14.357,0,0,1-6.033-1.769,25,25,0,0,1-2.948-1.769l1.36-6.357-1.36-68.283a27.379,27.379,0,0,1-2.835-6.877A28.676,28.676,0,0,1,0,568.384,26.129,26.129,0,0,1,1.516,559.5c1.876-5.263,5.492-10.117,10.748-14.426a61.618,61.618,0,0,1,10.744-6.935,104.33,104.33,0,0,1,15.281-6.285c12.606-4.141,30.26-7.865,52.472-11.07,17.77-2.564,38.481-4.8,61.556-6.655,39.334-3.157,72.253-4.1,72.581-4.111a89.805,89.805,0,0,0,11.506-8.7,37.306,37.306,0,0,0,6.855-8.7c.006,0,.6-.417.555-2.121-.045-1.586-.667-4.652-3.37-10.252a117.609,117.609,0,0,0-7.882-13.479,168.649,168.649,0,0,1-10.234-17.513,197.833,197.833,0,0,1-8.312-19.161c-1.853-4.973-2.817-8.185-2.827-8.217a51.149,51.149,0,0,1-3.309-4.487,45.332,45.332,0,0,1-5.26-10.458,44.015,44.015,0,0,1-1.893-11.438,48.372,48.372,0,0,1,.057-5.467l-1.591-2.021a274.308,274.308,0,0,1-3.3-31.727,281.989,281.989,0,0,1,.979-32.217,10.748,10.748,0,0,1-1.476-2.955,17.868,17.868,0,0,1-.6-8.559,42.934,42.934,0,0,1,3.129-10.152,48.693,48.693,0,0,1,2.257-4.548h-.023c-.575-.025-3.6-.175-6.663-.643a26.912,26.912,0,0,1-4.829-1.114c-1.529-.546-2.432-1.191-2.683-1.918-.621-1.794.283-4.548,1.651-8.718a117.753,117.753,0,0,0,3.489-12.352,255.16,255.16,0,0,0,3.819-25.8h0a8.866,8.866,0,0,1-2.14-1.8c-.663-.882-.452-1.3.246-2.683l.024-.047.158-.315a17.143,17.143,0,0,1,2.917-3.646v-3.8a10.361,10.361,0,0,0-3.345,2.3,27.111,27.111,0,0,0-1.768,2.223c-1.064,1.438-2.069,2.8-3.246,3.224a3.874,3.874,0,0,1-1.323.244,4.276,4.276,0,0,1-3.042-1.489,7.1,7.1,0,0,1-1.07-1.489h0a8.586,8.586,0,0,1-1.379.107,6.208,6.208,0,0,1-2.831-.6,3.393,3.393,0,0,1-1.811-2.8c-.267-2.455,2.021-3,4.917-3.7a17.921,17.921,0,0,0,6.995-2.805,35.923,35.923,0,0,0,7.909-8.669l-3.766-2.073H192.3a7.928,7.928,0,0,0-2.836.614,10.316,10.316,0,0,0-4.626,3.816c-1.086,1.566-2.255,2.36-3.476,2.36a3.849,3.849,0,0,1-2.644-1.324,3.469,3.469,0,0,1-.465-1.781c-.005-1.007.382-2.579,2.254-4.343a36.9,36.9,0,0,1,7.72-5.936,16.99,16.99,0,0,1,4.991-1.6l6.873,2.827,6.4-32.321a28.289,28.289,0,0,1-4.64-4.957,29.561,29.561,0,0,1-3.413-5.84,25.188,25.188,0,0,1-2.021-7.765,37.476,37.476,0,0,1,.465-9.172,73.27,73.27,0,0,1,2.057-8.934,91.7,91.7,0,0,1,3.316-9.457h9.228a1.654,1.654,0,0,1-.017-1.393c.352-.857,1.539-2.079,5.2-3.036,6.669-1.744,21.693-2.629,21.844-2.638v-7.774h0l-.024,0c-.749-.079-3.424-.377-6.389-.87-3.1-.516-7.14-1.356-8.744-2.426-2.041-1.362-2.379-2.9-2.846-5.028a25.643,25.643,0,0,0-1.109-3.923,26.125,26.125,0,0,0-2.962-5.028,49.758,49.758,0,0,1-3.346-5.393,21.945,21.945,0,0,1-2.261-6.823,12.97,12.97,0,0,1,1.765-9.523,15.054,15.054,0,0,0,1.978-5.354,15.916,15.916,0,0,0-.069-6.285,13.741,13.741,0,0,1-.317-3.666,20.564,20.564,0,0,1,1.095-6.288,27.787,27.787,0,0,1,.9-4.623,29.829,29.829,0,0,1,4.511-9.55,46.189,46.189,0,0,1,8.727-8.515c2.819-2.173,5.094-3.574,5.117-3.588a3.73,3.73,0,0,1,.012-3.017,6.348,6.348,0,0,1,2.227-2.6,18.384,18.384,0,0,1,5.559-2.507c5.416-1.59,14.41-2.645,21-3.25,7.051-.647,12.893-.929,13.138-.941v0a22.165,22.165,0,0,1,1.43-5.816,11.264,11.264,0,0,1,2.6-4,6.51,6.51,0,0,1,4.579-1.819,10.725,10.725,0,0,1,4.211.986,1.291,1.291,0,0,0,.513.114c1.062,0,1.83-1.536,2.8-3.482a23.3,23.3,0,0,1,2.8-4.637A7.621,7.621,0,0,1,300.224.1a8.835,8.835,0,0,1,1.294-.1,6.912,6.912,0,0,1,5.518,2.737,25.047,25.047,0,0,1,3.208,5.652c.505,1.1.982,2.135,1.5,3.018.763,1.312,2.835,2.46,4.839,3.571,2.139,1.186,4.16,2.306,4.721,3.606A30.356,30.356,0,0,1,323.9,30.134a39.593,39.593,0,0,1-.8,8.221,18.758,18.758,0,0,0-.418,3.277,2.446,2.446,0,0,1-.485,1.785,1.243,1.243,0,0,1-.927.354,3.585,3.585,0,0,1-1.558-.472l-.652,3.842-3.839,3.624-5.577,2.682a12.088,12.088,0,0,0-1.17,2.073,21.789,21.789,0,0,0-1.727,6.082c-.456,3.279-.055,3.611.452,4.032a2.235,2.235,0,0,1,.851,1.622c.147.834.291,1.466.418,2.024a7.55,7.55,0,0,1,.234,3.412,3.067,3.067,0,0,1-1.956,2.465l-1.521,6.234c-.048.05-4.82,5-5.939,8.046-.653,1.773.077,2.356.721,2.87.484.386.9.72.655,1.479-.32.981-1.179,1.316-2.009,1.64a3.056,3.056,0,0,0-1.685,1.114c-.166.283-.225.455-.19.559.029.086.118.122.23.168.309.126.775.316.539,1.81l-.027.171c-.409,2.59-.872,5.525-2.219,7.839-.586,1.006-1.073,1.135-1.431,1.135a2.357,2.357,0,0,1-.539-.081l-.016,0a2.18,2.18,0,0,0-.492-.078.918.918,0,0,0-.782.477,2.363,2.363,0,0,0-.24,1.943,2.373,2.373,0,0,1-.339,2.116,3.918,3.918,0,0,1-3.234,1.713,5.285,5.285,0,0,1-.677-.046c-.857-.111-1.165-.852-1.437-1.506-.214-.514-.4-.958-.808-.958-.434,0-.493.368-.567.835a2.066,2.066,0,0,1-.882,1.63,8.557,8.557,0,0,1-3.753.8h-.013l-.718,3.455a17.152,17.152,0,0,0,4.049,5.937,17.715,17.715,0,0,0,6.5,3.2l0,0c.315.2,7.717,4.906,7.717,5.179,0,.05.251.071.84.071.386,0,.887-.009,1.467-.019l.367-.006c.77-.013,1.609-.025,2.518-.025a39.028,39.028,0,0,1,8.179.64c2.406.547,3.576,1.135,4.316,2.169.774,1.083,1.1,2.673,1.637,5.308q.08.393.167.815a31.514,31.514,0,0,1-.153,9.953c-.453,3.079-1.065,5.477-1.071,5.5a17.018,17.018,0,0,0-1.48,3.08,12.428,12.428,0,0,0-.685,6.72,13.648,13.648,0,0,0,3.251,5.936,10.861,10.861,0,0,1,2.492,4.24,4.893,4.893,0,0,1-.133,3.1,12.828,12.828,0,0,1-1.783,2.776c-.661.874-1.41,1.865-2.226,3.169a64.174,64.174,0,0,1-6.5,8.433c.039.726.941,17.887,0,29.776a81.418,81.418,0,0,1-2.292,14.065,39.708,39.708,0,0,1-1.568,4.922,95.814,95.814,0,0,1,0,14.135,9.932,9.932,0,0,1-1.24,4.34c-.446.807-.831,1.5-.831,3.952a12.106,12.106,0,0,0,.854,4.76,19.537,19.537,0,0,1,1.217,6.029,42.4,42.4,0,0,1-.007,6.32,61.62,61.62,0,0,0,.007,8.568c.155,2.643.593,6.017.98,8.993.164,1.266.32,2.46.432,3.445.5,4.409.565,6.435.565,6.455a46.294,46.294,0,0,1,2.377,6.131,114.1,114.1,0,0,1,4.214,18.746c2.418,16.611,3.193,42.147,3.2,42.4-.074.058-1.851,1.424-6.5,1.884-1.4.139-3.205.209-5.36.209-3.666,0-7.129-.207-7.163-.209v.008c.016.459.137,4.544-.66,6.494-.438,1.071-3.615,2.782-6.2,4.028-2.758,1.329-5.453,2.427-5.566,2.473,0,.011-.44,1.27,0,6.5.441,5.248,1.775,14.7,1.789,14.794a39.28,39.28,0,0,1,4.39,7.974,55.037,55.037,0,0,1,3.038,9.477,59.412,59.412,0,0,1,1.422,12.7c.091,18.445,0,41.52,0,42.494v0a31.469,31.469,0,0,1,2.636,5.748,10.8,10.8,0,0,1,.471,3.447,21.214,21.214,0,0,0,.47,4.469,88.785,88.785,0,0,0,3.013,10.082h.01c1.546.085,38.356,2.128,81.676,6.621,25.884,2.685,49.024,5.707,68.778,8.984,24.691,4.1,44.13,8.6,57.776,13.4a111.018,111.018,0,0,1,15.991,6.938,61.381,61.381,0,0,1,10.953,7.414c5.267,4.567,8.646,9.62,10.044,15.02a23.808,23.808,0,0,1,.471,9.52,29.319,29.319,0,0,1-2.363,7.824,32.177,32.177,0,0,1-4.506,7.252v68.923l-11.887,6.3V602.734a.155.155,0,0,1-.027.013c-.809.361-5.19,2.292-12.023,4.9-6.908,2.639-17.824,6.538-30.6,10.13s-27.4,6.873-37.418,8.993c-10.6,2.242-18.528,3.715-18.861,3.776h-.007v83.617c-.022.036-2.232,3.62-5.244,4.8a8.7,8.7,0,0,1-3.172.534,14.715,14.715,0,0,1-3.819-.534V630.548l-.028,0c-1.654.222-16.815,2.231-39.442,4.217-13.96,1.226-27.982,2.2-41.676,2.9-17.118.875-33.769,1.32-49.491,1.32h-.025c-2.942,0-5.913-.016-8.83-.047-16.517-.179-34.688-.9-54.01-2.132-15.455-.989-31.679-2.31-48.221-3.927-28.062-2.743-47.727-5.444-47.923-5.471l-1.894,91.552c0,.029.507,2.985.979,6.125.467,3.109.91,6.448.915,6.479ZM244.6,388.343l-4.615,2.548a63.977,63.977,0,0,0-1.057,9.04,29.745,29.745,0,0,0,.806,10.063c1.1,3.785,2.052,4.789,3.253,6.06,1.494,1.581,3.353,3.549,6.33,11.838a152.484,152.484,0,0,1,5.2,18.554,181.18,181.18,0,0,0,6.64,23.185c2.626,7.233,7.917,14.218,10.459,17.575a16.724,16.724,0,0,1,1.419,2,6.8,6.8,0,0,1,.274,4.01,20.2,20.2,0,0,1-2.52,5.522c-2.75,4.639-8.991,9.79-9.054,9.841h13.42v-.006a92.541,92.541,0,0,1,0-11.212c.039-.867.136-1.76.24-2.7v-.006a32.474,32.474,0,0,0-.241-10.755c-2.075-10.734-4.788-18.288-7.93-27.035-2.5-6.95-5.326-14.827-8.3-25.676a42.8,42.8,0,0,0-4.41-8.735A33.408,33.408,0,0,1,250.8,415.1a28.313,28.313,0,0,0-1.061-2.744,15.2,15.2,0,0,1-1.178-3.556,60.662,60.662,0,0,1-.752-7.543,36.463,36.463,0,0,0-.53-5.337,32.867,32.867,0,0,0-1.932-6.419C244.88,388.495,244.6,388.345,244.6,388.343Z" transform="translate(47.104 425.428)" fill="#00c2e0" opacity="0.49" style="mix-blend-mode: screen;isolation: isolate"/>
  </g>
</svg>
