<svg xmlns="http://www.w3.org/2000/svg" xmlns:xlink="http://www.w3.org/1999/xlink" width="1080" height="1080" viewBox="0 0 1080 1080">
  <defs>
    <filter id="Elipse_123" x="48.196" y="57.196" width="971.607" height="971.607" filterUnits="userSpaceOnUse">
      <feOffset dy="3" input="SourceAlpha"/>
      <feGaussianBlur stdDeviation="3" result="blur"/>
      <feFlood flood-opacity="0.161"/>
      <feComposite operator="in" in2="blur"/>
      <feComposite in="SourceGraphic"/>
    </filter>
    <clipPath id="clip-logo-peteca">
      <rect width="1080" height="1080"/>
    </clipPath>
  </defs>
  <g id="logo-peteca" clip-path="url(#clip-logo-peteca)">
    <g transform="matrix(1, 0, 0, 1, 0, 0)" filter="url(#Elipse_123)">
      <ellipse id="Elipse_123-2" data-name="Elipse 123" cx="476.803" cy="476.804" rx="476.803" ry="476.804" transform="translate(57.2 63.2)" fill="#f5952c"/>
    </g>
    <path id="Caminho_115" data-name="Caminho 115" d="M3532.032,4987.656c43.915,4.291,30.964,35.722-71.327,111.268-58.818,43.438-142.823,33.513-205.13,41.222-45.348,5.612-79.211,33.3-80.941,34.776-18.6,15.822-35.925,44.26-52.658,39.324s25.82-54.614,20.475-58.034-88.845,24.694-90.556,10.371,85.566-39.392,81.435-46.261-111.434-15.209-108.371-30.961,120.723,6.119,119.724,0-101.617-56.134-96.714-63.875,104.471,32.854,114.625,29.124-68.786-66.708-29.264-69.995c11.619-.967,32.383,21.751,56.765,32.882,58.684,26.794,183.184,59.7,270.61-15.551s117.221-144.033,79.1-285.448-141.167-243.835-313.5-256.668-319.912,72.742-363,170.5,39.615,227.579,154.435,226.032c59.938-.809,118.445-19.9,164.483-42.343,42.544-20.74,73.845-44.853,102.269-48.424,59.459-7.469-36.284,55.931-28.91,60.892s117.588-19.307,123.225-9.394-104.482,31.735-100.1,45.893,116.931-1.295,117.805,9.755-113.017,21.319-115.185,27.826,101.264,41.25,93.233,52.761-96.248-31.369-103.956-24.719,55.532,52.753,43.247,59.047-81.394-54.988-139.212-64.744c-37.005-6.243-109.5,29.058-211.046,5.7s-264.473-83.985-201.555-139.207,5.444,424.721,382.651,468.719S3488.117,4983.365,3532.032,4987.656Z" transform="translate(-2643.787 -4303.564)" fill="none" stroke="#fff" stroke-linecap="round" stroke-width="8"/>
    <path id="Exclusão_7" data-name="Exclusão 7" d="M414.524.5a104.159,104.159,0,0,0-14.845,4.162,54.127,54.127,0,0,0-14.951,8.55,71.844,71.844,0,0,0-14.794,16.858c-5.162,7.878-9.863,17.392-14.37,29.085-4.279,11.1-7.89,25.078-10.733,41.538-2.274,13.169-4.065,27.949-5.322,43.93-2.112,26.85-1.991,48.073-1.986,48.966.111.128,11.131,12.894,21.71,26.081,9.81,12.231,21.329,27.443,20.49,30.455-.609,2.182-2.146,3.267-4.571,3.225-3.684-.064-9.225-2.714-16.026-7.663-10.722-7.8-22-22.7-22.114-22.843a275.278,275.278,0,0,0-6.726,37.5,232.383,232.383,0,0,0-1.379,35.495c.6,13.742,2.682,26.035,6.191,36.536a113.443,113.443,0,0,0,14.756,28.766A157.621,157.621,0,0,0,369.076,383.6a181.827,181.827,0,0,0,28.515,22.79h0v0c3.314-117.359,10.121-335.448,10.177-337.258l6.82.119.4,333c12.417-4.508,29.931-12.952,42.85-27.584a105.955,105.955,0,0,0,14.431-21.789,179.54,179.54,0,0,0,9.679-22.941,210.99,210.99,0,0,0,7.13-25.465l0-.037c-.336.271-33.721,27.152-40.115,27.041-.647-.011-1-.3-1.059-.86-.2-2.065,3.959-6.376,9.722-12.342,6.389-6.616,14.34-14.851,20.861-24.473a75.525,75.525,0,0,0,8.158-15.26,45.136,45.136,0,0,0,3.173-16.553c-.02-1.889-.04-4.033-.063-6.408v-.114c-.184-19.257-.526-55.1-2.263-91.3-2.119-44.149-5.706-76.48-10.661-96.1-1.838-7.28-3.975-12.708-6.351-16.132-2.093-3.016-4.436-4.567-6.964-4.612-4.9-.085-9.781,5.391-13.484,10.171-1.051,1.355-2.028,2.688-2.974,3.977-2.582,3.517-4.622,6.3-5.8,6.275a.713.713,0,0,1-.565-.31c-1.883-2.469,1.031-14.686,3.805-24.5,3-10.6,6.507-20.823,6.54-20.915a69.827,69.827,0,0,0-9.274-10.9,48.869,48.869,0,0,0-10.056-7.556A26.575,26.575,0,0,0,419.409,0c-.123,0-.246,0-.369,0A20.828,20.828,0,0,0,414.524.5ZM154.476,89.347a17.057,17.057,0,0,0-7.5,3.319,13.313,13.313,0,0,0-2.2,2.253,66.76,66.76,0,0,0-5.578,8.145,34.663,34.663,0,0,0-3.829,10.338,45.862,45.862,0,0,0-.339,14.335,97.88,97.88,0,0,0,4.89,20.141,142.346,142.346,0,0,0,11.791,24.735c4.291,7.378,9.482,15.345,15.428,23.677,9.989,14,18.763,24.333,19.134,24.767.106.018,10.759,1.724,21.367,3.82,9.839,1.944,21.741,4.642,22.565,6.462a2.673,2.673,0,0,1-.92,3.459c-1.834,1.484-5.644,2.47-11.013,2.849-8.468.6-20.124-2.045-20.237-2.07a175.263,175.263,0,0,0,12.1,21.112,147.9,147.9,0,0,0,13.9,17.928,85.651,85.651,0,0,0,18.044,15.322,72.379,72.379,0,0,0,19.057,8,100.839,100.839,0,0,0,18.659,3.073,116.555,116.555,0,0,0,23.358-.592h0c-46.568-58.766-132.789-168.238-133.505-169.148l3.4-2.749L309.992,291.227c4.245-7.316,9.374-18.656,9.707-31.13a67.56,67.56,0,0,0-1.863-16.6,114.481,114.481,0,0,0-4.669-15.2,134.235,134.235,0,0,0-6.958-15.39l-.012-.02c-.054.271-5.4,27.162-8.588,29.74a.592.592,0,0,1-.872.015c-.947-.925-.675-4.747-.3-10.038a118.907,118.907,0,0,0,.19-20.559,48.173,48.173,0,0,0-2.263-10.822,28.761,28.761,0,0,0-5.239-9.4c-.786-.915-1.677-1.956-2.663-3.107l-.047-.056c-8-9.343-22.887-26.735-38.6-43.722-19.17-20.722-34.208-35.059-44.7-42.615-3.892-2.8-7.17-4.579-9.743-5.275-2.265-.614-4.052-.408-5.312.611-2.441,1.976-2.588,6.663-2.442,10.525.04,1.1.108,2.15.173,3.17.177,2.784.317,4.982-.273,5.46a.457.457,0,0,1-.4.08c-1.938-.432-5.525-7.608-8.192-13.55-2.882-6.418-5.357-12.863-5.38-12.922a44.719,44.719,0,0,0-9.027-1.512q-1.217-.077-2.38-.076A28.965,28.965,0,0,0,154.476,89.347Zm511.08,28.748c-.027.058-2.946,6.314-6.268,12.515-3.076,5.743-7.155,12.65-9.118,12.946a.456.456,0,0,1-.4-.109c-.554-.517-.261-2.7.11-5.465.136-1.013.276-2.06.394-3.149.414-3.844.594-8.53-1.7-10.671-1.184-1.1-2.954-1.434-5.255-.98-2.616.516-6.009,2.057-10.088,4.584-10.99,6.806-26.993,20.06-47.562,39.392-16.863,15.851-32.928,32.162-41.558,40.924l-.051.053-2.873,2.914a28.753,28.753,0,0,0-5.882,9.015A48.086,48.086,0,0,0,532.29,230.7a118.841,118.841,0,0,0-1.243,20.522c.008,5.3.013,9.136-1,9.993a.591.591,0,0,1-.869-.077c-3-2.793-6.458-29.991-6.492-30.265l-.013.019a134.014,134.014,0,0,0-8.015,14.868,114.6,114.6,0,0,0-5.718,14.843,67.53,67.53,0,0,0-3.017,16.427c-.538,12.468,3.788,24.138,7.511,31.732L661.4,156l3.2,2.98c-.778.856-94.426,104.048-144.98,159.423h0a116.491,116.491,0,0,0,23.259,2.218,100.8,100.8,0,0,0,18.829-1.763,72.4,72.4,0,0,0,19.568-6.646,85.614,85.614,0,0,0,19.068-14.027,147.827,147.827,0,0,0,15.116-16.915A175.137,175.137,0,0,0,629,261.056c-.116.018-11.926,1.84-20.331.654-5.332-.752-9.062-2-10.788-3.611a2.674,2.674,0,0,1-.677-3.515c.95-1.757,13.01-3.619,22.962-4.872,10.728-1.35,21.474-2.31,21.581-2.319.4-.407,9.873-10.1,20.815-23.371,6.513-7.9,12.246-15.484,17.042-22.545a142.4,142.4,0,0,0,13.487-23.852,97.875,97.875,0,0,0,6.283-19.751,45.82,45.82,0,0,0,.662-14.324,34.645,34.645,0,0,0-3.1-10.579,66.989,66.989,0,0,0-5-8.516,13.371,13.371,0,0,0-2.033-2.4,17.078,17.078,0,0,0-7.256-3.835,31.319,31.319,0,0,0-7.988-1h-.3A44.72,44.72,0,0,0,665.557,118.095ZM75.482,234.282c-3.649.429-6.12,1.767-7.346,3.976-2.376,4.283.174,11.156,2.661,16.667.705,1.563,1.423,3.05,2.118,4.491,1.9,3.928,3.4,7.031,2.823,8.065a.71.71,0,0,1-.539.352c-3.067.5-12.5-7.8-19.871-14.857-7.962-7.62-15.351-15.514-15.419-15.586a69.992,69.992,0,0,0-13.986,3.063,48.9,48.9,0,0,0-11.4,5.321,26.534,26.534,0,0,0-8.931,9.174,20.794,20.794,0,0,0-1.858,4.54,103.852,103.852,0,0,0-3.29,15.046,53.957,53.957,0,0,0,.539,17.2A71.762,71.762,0,0,0,8.94,312.694c4.54,8.251,10.743,16.863,18.964,26.326,7.8,8.985,18.463,18.732,31.681,28.967,10.573,8.188,22.8,16.707,36.334,25.317,22.744,14.469,41.561,24.326,42.354,24.739.164-.037,16.623-3.763,33.247-6.9,15.417-2.911,34.272-5.928,36.541-3.773,1.644,1.561,1.88,3.428.705,5.546-1.786,3.218-6.73,6.862-14.3,10.535-11.93,5.792-30.395,8.75-30.574,8.778a275.485,275.485,0,0,0,30,23.538,232.914,232.914,0,0,0,30.729,17.881c12.43,5.924,24.274,9.858,35.2,11.693a113.788,113.788,0,0,0,32.356.492,158.061,158.061,0,0,0,28.88-6.409,181.931,181.931,0,0,0,33.533-14.448h.006l0,0C252.408,406.954,62.813,298.565,61.24,297.665l3.307-5.958L359.1,447.685c1.846-13.067,2.6-32.477-4.265-50.74a105.93,105.93,0,0,0-12.487-22.956,179.93,179.93,0,0,0-15.735-19.306,211.045,211.045,0,0,0-19.165-18.243l-.03-.021c.083.423,8.172,42.484,5.072,48.072a.924.924,0,0,1-1.257.529c-1.921-.788-3.776-6.484-6.347-14.366-2.849-8.741-6.4-19.619-11.84-29.887a75.518,75.518,0,0,0-9.66-14.359,45.271,45.271,0,0,0-13.141-10.571c-1.68-.868-3.586-1.857-5.7-2.951l-.1-.053c-17.11-8.879-48.957-25.406-81.768-40.866-40.02-18.858-70.285-30.874-89.954-35.715a62.6,62.6,0,0,0-14.382-2.126A24.59,24.59,0,0,0,75.482,234.282Zm660.188,52.61c-20.185,1.708-51.96,8.848-94.442,21.22C606.4,318.253,572.358,329.6,554.069,335.7l-.109.037-6.086,2.026a45.262,45.262,0,0,0-14.636,8.386,75.641,75.641,0,0,0-11.79,12.673c-6.985,9.292-12.191,19.482-16.374,27.67-3.773,7.384-6.5,12.719-8.518,13.2-.547.13-.937-.112-1.158-.72-2.188-6,12.39-46.281,12.537-46.688l-.032.016a211.125,211.125,0,0,0-21.787,15.025,179.993,179.993,0,0,0-18.565,16.611,105.96,105.96,0,0,0-15.928,20.723c-9.645,16.964-11.936,36.253-12.16,49.448L754.818,346.066l2.332,6.4c-1.7.643-205.931,78.074-315.948,119.412h0a181.874,181.874,0,0,0,30.858,19.51,157.855,157.855,0,0,0,27.52,10.841,113.686,113.686,0,0,0,32.035,4.57c11.083-.105,23.4-2.141,36.6-6.049A233,233,0,0,0,601.372,487.9a275.828,275.828,0,0,0,33.312-18.562c-.173-.057-17.946-5.863-28.823-13.448-6.9-4.811-11.212-9.182-12.472-12.639-.83-2.277-.3-4.082,1.564-5.368,2.578-1.774,20.728,4.152,35.5,9.436,15.928,5.7,31.6,11.949,31.757,12.012.848-.285,20.977-7.08,45.706-17.817,14.719-6.39,28.128-12.893,39.853-19.328,14.657-8.044,26.711-16,35.828-23.66,9.6-8.063,17.077-15.6,22.853-23.04a71.735,71.735,0,0,0,11.142-19.459,53.955,53.955,0,0,0,3.226-16.9,103.74,103.74,0,0,0-.892-15.374,20.782,20.782,0,0,0-1.125-4.774,26.512,26.512,0,0,0-7.384-10.457,48.928,48.928,0,0,0-10.426-7.037,70.136,70.136,0,0,0-13.334-5.211c-.078.062-8.613,6.7-17.67,12.985-8.388,5.817-19,12.546-21.954,11.571a.707.707,0,0,1-.477-.432c-.4-1.11,1.561-3.941,4.05-7.525.913-1.314,1.855-2.671,2.8-4.1,3.319-5.054,6.914-11.446,5.238-16.046-.864-2.374-3.1-4.082-6.632-5.076a37.622,37.622,0,0,0-9.928-1.088Q739.7,286.551,735.671,286.891ZM303.15,300.416h0ZM397.591,406.39h0Zm-43,58.586h0Zm86.613,6.906h0Z" transform="translate(116.872 396.614) rotate(-3)" fill="#fff" opacity="0.09"/>
  </g>
</svg>
